<svg width="60" height="65" viewBox="0 0 60 65" fill="none" xmlns="http://www.w3.org/2000/svg">
<path d="M28.5506 5.26836L28.5506 24.8192L27.7834 24.8192L28.9222 29.376L27.6082 29.7036L26.3871 24.8192L24.0895 24.8192L27.1374 29.8994L25.9757 30.5957L22.5102 24.8192L21.1694 24.8192L21.1694 23.465L27.1963 23.465L27.1963 21.9461L25.0003 21.9461L25.0003 20.5919L27.1963 20.5919L27.1963 19.0729L25.0003 19.0729L25.0003 17.7187L27.1963 17.7187L27.1963 16.1998L25.0003 16.1998L25.0003 14.8455L27.1963 14.8455L27.1963 13.3266L25.0003 13.3266L25.0003 11.9724L27.1963 11.9724L27.1963 10.4534L25.0003 10.4534L25.0003 9.09923L27.1963 9.09923L27.1963 6.62257L25.4801 6.62257L19.3632 24.0329L19.254 24.1421L20.2117 25.0998L19.254 26.0576L18.2963 25.0998L16.5154 26.8807L24.7499 31.8216L24.0536 32.9833L15.7483 28.0003L14.462 31.1052L23.8577 33.454L23.5302 34.768L14.2126 32.4388L14.2126 34.9576L15.5677 34.9576L15.5677 36.3118L14.2126 36.3118L14.2126 38.8306L23.5302 36.5015L23.8577 37.8155L14.462 40.1643L15.7483 43.2692L24.0536 38.2862L24.7499 39.4479L16.5154 44.3888L18.2963 46.1696L19.254 45.2119L20.2117 46.1696L19.254 47.1274L21.0349 48.9082L25.9757 40.6738L27.1374 41.37L22.1544 49.6754L25.2594 50.9616L27.6082 41.5659L28.9222 41.8934L26.593 51.2111L29.1118 51.2111L29.1118 49.8559L30.466 49.8559L30.466 51.2111L32.9848 51.2111L30.6556 41.8934L31.9696 41.5659L34.3184 50.9616L37.4233 49.6754L32.4403 41.37L33.602 40.6738L38.5429 48.9082L40.3238 47.1274L39.3661 46.1696L40.3238 45.2119L41.2815 46.1696L43.0624 44.3888L34.8279 39.4479L35.5242 38.2862L43.8295 43.2692L45.1157 40.1643L35.72 37.8155L36.0476 36.5015L45.3652 38.8306L45.3652 36.3118L44.01 36.3118L44.01 34.9576L45.3652 34.9576L45.3652 32.4388L36.0476 34.768L35.72 33.454L45.1157 31.1052L43.8295 28.0003L35.5242 32.9833L34.8279 31.8216L43.0624 26.8807L41.2815 25.0998L40.3238 26.0575L39.3661 25.0998L40.3238 24.1421L40.2146 24.0329L34.0977 6.62257L32.3814 6.62257L32.3814 9.09923L34.5775 9.09923L34.5775 10.4534L32.3814 10.4534L32.3814 11.9724L34.5775 11.9724L34.5775 13.3266L32.3814 13.3266L32.3814 14.8455L34.5775 14.8455L34.5775 16.1998L32.3814 16.1998L32.3814 17.7187L34.5775 17.7187L34.5775 19.0729L32.3814 19.0729L32.3814 20.5919L34.5775 20.5919L34.5775 21.9461L32.3814 21.9461L32.3814 23.465L38.4084 23.465L38.4084 24.8192L37.0675 24.8192L33.602 30.5957L32.4403 29.8994L35.4883 24.8192L33.1907 24.8192L31.9696 29.7036L30.6556 29.376L31.7943 24.8192L31.0272 24.8192L31.0272 5.26836L35.0573 5.26836L41.3907 23.2936L44.7288 26.6317L46.719 31.4366L46.719 39.8329L44.7288 44.6378L38.7919 50.5747L33.987 52.5648L25.5907 52.5648L20.7859 50.5747L14.849 44.6378L12.8588 39.8329L12.8588 31.4366L14.849 26.6317L18.1871 23.2936L24.5205 5.26836L28.5506 5.26836Z" fill="white"/>
<path d="M33.1409 32.2827C34.9893 34.1311 34.9893 37.1383 33.1409 38.9867C31.2925 40.8351 28.2853 40.8351 26.4369 38.9867C24.5885 37.1383 24.5885 34.1311 26.4369 32.2827C28.2853 30.4343 31.2925 30.4343 33.1409 32.2827ZM27.3946 38.029C28.7148 39.3492 30.863 39.3492 32.1832 38.029C33.5034 36.7088 33.5034 34.5606 32.1832 33.2404C30.863 31.9202 28.7148 31.9202 27.3946 33.2404C26.0744 34.5606 26.0744 36.7088 27.3946 38.029Z" fill="white"/>
<path d="M30.4664 19.2089L30.4664 20.311L29.112 20.311L29.112 19.2089L30.4664 19.2089Z" fill="white"/>
<rect width="13.6257" height="2" transform="matrix(-1 3.17865e-08 3.17865e-08 1 36.6051 55.1332)" fill="#6EF6FF"/>
<rect opacity="0.4" width="11.1925" height="2" transform="matrix(-1 3.17865e-08 3.17865e-08 1 35.6317 59.0262)" fill="#6EF6FF"/>
<rect opacity="0.1" width="8.75936" height="2" transform="matrix(-1 3.17865e-08 3.17865e-08 1 34.172 62.9193)" fill="#6EF6FF"/>
</svg>
